<svg width="48" height="48" viewBox="0 0 48 48" fill="none" xmlns="http://www.w3.org/2000/svg">
<g clip-path="url(#clip0_29_155)">
<path d="M48 0H0V48H48V0Z" fill="#111111"/>
<path d="M38.352 16.98V13.14H24.48V34.776H29.388V26.4H36.48V22.704H29.388V16.98H38.352Z" fill="white"/>
<path d="M11.7 14.64V21.072C11.7016 21.2438 11.6693 21.4142 11.605 21.5735C11.5408 21.7328 11.4457 21.8779 11.3254 22.0004C11.2051 22.123 11.0617 22.2207 10.9036 22.2879C10.7455 22.355 10.5758 22.3904 10.404 22.392H9.64799V25.536H10.392C10.5638 25.536 10.7339 25.5698 10.8925 25.6356C11.0512 25.7013 11.1954 25.7976 11.3169 25.9191C11.4384 26.0406 11.5347 26.1848 11.6004 26.3434C11.6662 26.5021 11.7 26.6722 11.7 26.844V26.844V33.204C11.7 36.504 13.44 38.304 16.608 38.304H19.56V34.704H17.772C17.6053 34.7045 17.4395 34.6803 17.28 34.632C16.536 34.476 16.08 33.876 16.08 32.832V27.456C16.08 26.016 16.08 24.588 14.208 23.928C16.08 23.256 16.08 21.6 16.08 20.244V15C16.0231 14.6048 16.1141 14.2025 16.3355 13.8703C16.557 13.5381 16.8933 13.2994 17.28 13.2C17.4483 13.1558 17.622 13.1356 17.796 13.14H19.596V9.6H16.608C13.404 9.6 11.7 11.4 11.7 14.64Z" fill="white"/>
</g>
<defs>
<clipPath id="clip0_29_155">
<rect width="48" height="48" fill="white"/>
</clipPath>
</defs>
</svg>
