<svg width="237" height="48" viewBox="0 0 237 48" fill="none" xmlns="http://www.w3.org/2000/svg">
<g clip-path="url(#clip0_28_125)">
<path d="M236.58 36.66V42.525H231.66C226.41 42.36 223.605 39.525 223.605 34.2V20.805H220.17V15.66H223.605V9.89999H230.865V15.6H236.415V20.73H230.865V33.48C230.865 35.205 231.21 36.585 233.865 36.585L236.58 36.66Z" fill="white"/>
<path d="M191.235 29.145V28.755C191.156 27.0298 191.419 25.306 192.008 23.6826C192.597 22.0591 193.501 20.5678 194.667 19.2941C195.833 18.0205 197.239 16.9895 198.805 16.2604C200.371 15.5312 202.065 15.1182 203.79 15.045C204.135 15.045 204.495 15.045 204.84 15.045C211.695 15.045 217.71 19.035 217.71 28.545V30.57H198.66C198.855 34.95 201.225 37.425 205.215 37.425C208.65 37.425 210.255 35.925 210.72 33.735H217.575C216.735 39.45 212.175 42.63 204.96 42.63C197.04 42.57 191.235 37.56 191.235 29.145ZM210.57 25.98C210.315 21.99 208.305 20.07 204.81 20.07C201.315 20.07 199.305 22.23 198.81 25.98H210.57Z" fill="white"/>
<path d="M161.595 29.145V28.755C161.516 27.0322 161.778 25.3108 162.365 23.6892C162.952 22.0676 163.853 20.5776 165.016 19.3044C166.179 18.0311 167.582 16.9996 169.144 16.2687C170.706 15.5379 172.397 15.1221 174.12 15.045C174.465 15.045 174.825 15.045 175.17 15.045C182.025 15.045 188.055 19.035 188.055 28.545V30.57H169.02C169.215 34.95 171.585 37.425 175.575 37.425C179.01 37.425 180.615 35.925 181.08 33.735H187.935C187.08 39.45 182.52 42.63 175.305 42.63C167.4 42.57 161.595 37.56 161.595 29.145ZM180.93 25.98C180.675 21.99 178.665 20.07 175.17 20.07C171.675 20.07 169.725 22.29 169.17 25.965L180.93 25.98Z" fill="white"/>
<path d="M120 15.6H127.68L132.375 33.39L137.52 15.6H143.52L148.17 33.39L153.12 15.6H160.155L151.815 42.03H144.615L140.115 25.44L135.3 42.03H128.01L120 15.6Z" fill="white"/>
<path d="M95.595 33.72H102.45C102.765 36.105 103.95 37.47 107.1 37.47C109.92 37.47 111.225 36.405 111.225 34.59C111.225 32.775 109.725 32.01 105.885 31.47C98.85 30.405 96.135 28.38 96.135 23.22C96.135 17.715 101.175 14.985 106.635 14.985C112.5 14.985 116.925 17.115 117.555 23.19H110.79C110.747 22.7203 110.611 22.2639 110.39 21.847C110.17 21.4302 109.869 21.0612 109.505 20.7613C109.141 20.4614 108.721 20.2367 108.27 20.1C107.818 19.9633 107.344 19.9174 106.875 19.965H106.65C104.28 19.965 102.9 21.075 102.9 22.695C102.9 24.315 104.175 25.02 108.045 25.575C114.615 26.565 118.29 28.23 118.29 33.885C118.29 39.54 114.135 42.57 107.175 42.57C100.215 42.57 95.79 39.435 95.595 33.72Z" fill="white"/>
<path d="M66.465 15.6H73.725V19.785C74.5433 18.2489 75.7854 16.98 77.3037 16.1292C78.822 15.2783 80.5526 14.8812 82.29 14.985C87.435 14.985 91.17 18.12 91.17 25.275V42.09H84V26.325C84 22.74 82.605 21.03 79.365 21.03C78.6802 20.9704 77.9904 21.0466 77.3351 21.2543C76.6798 21.462 76.072 21.797 75.5466 22.2402C75.0211 22.6835 74.5884 23.2261 74.2732 23.837C73.9581 24.4478 73.7667 25.115 73.71 25.8C73.6725 26.1189 73.6725 26.4411 73.71 26.76V42.03H66.465V15.6Z" fill="white"/>
<path d="M52.455 8.955C52.4287 8.23115 52.6177 7.51577 52.9982 6.89943C53.3787 6.28309 53.9335 5.79351 54.5924 5.49267C55.2513 5.19183 55.9847 5.09326 56.6996 5.20944C57.4146 5.32562 58.079 5.65133 58.6087 6.14533C59.1385 6.63933 59.5097 7.2794 59.6755 7.98451C59.8412 8.68962 59.794 9.42805 59.5399 10.1063C59.2857 10.7846 58.836 11.3722 58.2477 11.7947C57.6594 12.2173 56.9589 12.4558 56.235 12.48H56.1C55.6507 12.5084 55.2002 12.4479 54.7743 12.3018C54.3485 12.1558 53.9557 11.927 53.6184 11.6288C53.2811 11.3306 53.0061 10.9687 52.809 10.5639C52.6119 10.1591 52.4967 9.71941 52.47 9.27C52.4575 9.16549 52.4525 9.06023 52.455 8.955ZM52.455 15.6H59.79V42.03H52.485L52.455 15.6Z" fill="white"/>
<path d="M24.81 5.91H48V12.315H33V21.87H44.88V28.035H32.985V42.03H24.81V5.91Z" fill="white"/>
<path d="M10.815 17.73C10.815 19.995 10.815 22.755 7.695 23.88C10.89 24.975 10.815 27.3 10.815 29.73V38.73C10.815 40.44 11.505 41.475 12.735 41.73C13.0053 41.8212 13.29 41.8619 13.575 41.85H16.575V47.85H11.625C6.345 47.85 3.435 44.85 3.435 39.285V28.635C3.39755 28.0882 3.15647 27.5754 2.75935 27.1977C2.36224 26.82 1.83795 26.605 1.29 26.595H0V21.33H1.29C1.84888 21.3226 2.38347 21.1004 2.78286 20.7094C3.18224 20.3184 3.41578 19.7886 3.435 19.23V8.43C3.435 2.955 6.285 0 11.625 0H16.62V5.91H13.62C13.3347 5.91083 13.0512 5.95638 12.78 6.045C11.55 6.36 10.86 7.38 10.86 9.045L10.815 17.73Z" fill="white"/>
</g>
<defs>
<clipPath id="clip0_28_125">
<rect width="237" height="48" fill="white"/>
</clipPath>
</defs>
</svg>
