<svg xmlns="http://www.w3.org/2000/svg" width="132" height="35" fill="#6d6e76"><path d="M44.83 25.205a2.65 2.65 0 0 1-1.67-.48 1.561 1.561 0 0 1-.63-1.31v-9.27a.26.26 0 0 1 .29-.29h1.68c.19 0 .28.1.28.29v8.55c0 .38.17.57.52.57.148.006.297-.011.44-.05.2 0 .31.06.32.24l.15 1.25a.26.26 0 0 1-.24.31 3.767 3.767 0 0 1-1.14.19Zm9.45-1.07a4.71 4.71 0 0 1-6 0 4 4 0 0 1 0-5.63 4.73 4.73 0 0 1 6 0 4.06 4.06 0 0 1 0 5.62v.01Zm-4.42-1.32a2.13 2.13 0 0 0 2.86 0 2.24 2.24 0 0 0 0-2.94 2.13 2.13 0 0 0-2.86 0 2.24 2.24 0 0 0 0 2.94Zm14.8-5.13c.19 0 .28.1.28.29v7.17a3.26 3.26 0 0 1-1.11 2.57 4.2 4.2 0 0 1-2.91 1 4.68 4.68 0 0 1-2.71-.75 2.999 2.999 0 0 1-1.31-2c0-.2 0-.29.27-.29h1.68a.37.37 0 0 1 .33.23c.109.303.326.556.61.71.346.178.73.268 1.12.26a1.769 1.769 0 0 0 1.29-.46 1.7 1.7 0 0 0 .47-1.25v-.63a3.35 3.35 0 0 1-2.08.65 3.88 3.88 0 0 1-2.84-1.09 4 4 0 0 1 0-5.56 3.911 3.911 0 0 1 2.84-1.08 3.36 3.36 0 0 1 2.13.69v-.16a.26.26 0 0 1 .28-.29l1.66-.01Zm-3.88 5.72a1.759 1.759 0 0 0 1.37-.59 2.45 2.45 0 0 0 0-3 1.751 1.751 0 0 0-1.36-.58 1.8 1.8 0 0 0-1.39.59 2.12 2.12 0 0 0-.54 1.5 2.16 2.16 0 0 0 .53 1.49 1.81 1.81 0 0 0 1.39.59Zm12.79.73a4.73 4.73 0 0 1-6 0 4.07 4.07 0 0 1 0-5.63 4.74 4.74 0 0 1 6 0 4.06 4.06 0 0 1 0 5.62v.01Zm-4.43-1.32a2 2 0 0 0 1.44.55 2 2 0 0 0 1.43-.55 2.27 2.27 0 0 0 0-2.94 2 2 0 0 0-1.43-.55 2 2 0 0 0-1.44.55 2.27 2.27 0 0 0 0 2.94Zm9.17-6.83a1.45 1.45 0 0 1-1.91 0 1.211 1.211 0 0 1 0-1.76 1.48 1.48 0 0 1 1.91 0 1.208 1.208 0 0 1 0 1.76Zm.21 9.22a2.69 2.69 0 0 1-1.67-.48 1.58 1.58 0 0 1-.62-1.31v-5.44a.26.26 0 0 1 .29-.29h1.68c.19 0 .28.1.28.29v4.72c0 .38.17.57.51.57.152.005.303-.012.45-.05.2 0 .31.06.32.24l.15 1.25a.26.26 0 0 1-.24.31c-.371.122-.76.186-1.15.19Zm7.57-7.76a3.92 3.92 0 0 1 2.86 1.08 4.1 4.1 0 0 1 0 5.59 3.888 3.888 0 0 1-2.86 1.09 3.44 3.44 0 0 1-2.09-.65v3.61c0 .19-.1.28-.29.28h-1.68a.24.24 0 0 1-.28-.28v-8.2a.52.52 0 0 0-.59-.59h-.33c-.22 0-.33-.08-.33-.24v-1.18a.32.32 0 0 1 .23-.33 3.002 3.002 0 0 1 1.08-.18 1.85 1.85 0 0 1 1.81 1 3.371 3.371 0 0 1 2.47-1Zm-1.56 5.37a1.909 1.909 0 0 0 2.76 0 2.16 2.16 0 0 0 .55-1.53 2.13 2.13 0 0 0-.55-1.53 1.91 1.91 0 0 0-2.76 0 2.21 2.21 0 0 0-.53 1.53 2.24 2.24 0 0 0 .53 1.53Zm10.24 2.39a4.82 4.82 0 0 1-2.57-.62 2.441 2.441 0 0 1-1.16-1.77c0-.2.07-.3.29-.3h1.47a.38.38 0 0 1 .33.22c.21.54.76.81 1.64.81a1.87 1.87 0 0 0 .89-.18.58.58 0 0 0 .34-.49c0-.26-.16-.44-.48-.56a5.41 5.41 0 0 0-1.17-.25 11.13 11.13 0 0 1-1.4-.25 2.3 2.3 0 0 1-1.17-.67 2.141 2.141 0 0 1 .43-3.1 4.12 4.12 0 0 1 2.42-.64 4.42 4.42 0 0 1 2.36.59 2.23 2.23 0 0 1 1.1 1.57c0 .2-.09.3-.27.3h-1.48a.31.31 0 0 1-.3-.18 1 1 0 0 0-.52-.53 1.76 1.76 0 0 0-.86-.2 1.741 1.741 0 0 0-.85.17.5.5 0 0 0-.32.46.64.64 0 0 0 .48.59c.384.145.783.245 1.19.3.468.061.932.148 1.39.26a2.3 2.3 0 0 1 1.17.67 1.889 1.889 0 0 1 .49 1.37 2 2 0 0 1-.93 1.74 4.37 4.37 0 0 1-2.51.69Zm14.01-.5a.269.269 0 0 1-.129.275.27.27 0 0 1-.101.035 3.874 3.874 0 0 1-1.13.19 2.218 2.218 0 0 1-2-.87 3.62 3.62 0 0 1-2.55.87 3.099 3.099 0 0 1-2.34-.91 3.28 3.28 0 0 1-.89-2.41v-3.91c0-.19.09-.29.28-.29h1.68c.19 0 .28.1.28.29v3.61c-.018.45.135.89.43 1.23a1.503 1.503 0 0 0 1.15.47 1.659 1.659 0 0 0 1.2-.44 1.598 1.598 0 0 0 .45-1.19v-3.68c0-.19.09-.29.28-.29h1.7c.19 0 .28.1.28.29v4.71c0 .39.17.58.5.58.155.006.31-.011.46-.05a.259.259 0 0 1 .33.24l.12 1.25Zm15.89 0c.009.036.01.073.003.11a.246.246 0 0 1-.233.2c-.372.12-.759.185-1.15.19a2.67 2.67 0 0 1-1.67-.48 1.56 1.56 0 0 1-.67-1.31v-2.35a1.77 1.77 0 0 0-.42-1.23 1.423 1.423 0 0 0-1.12-.47 1.255 1.255 0 0 0-1 .44 1.779 1.779 0 0 0-.38 1.18v3.69c0 .19-.09.29-.28.29h-1.69a.258.258 0 0 1-.216-.075.26.26 0 0 1-.074-.215v-3.61a1.851 1.851 0 0 0-.39-1.23 1.3 1.3 0 0 0-1-.47 1.45 1.45 0 0 0-1.1.44 1.651 1.651 0 0 0-.41 1.18v3.69a.256.256 0 0 1-.074.215.262.262 0 0 1-.216.075h-1.63c-.19 0-.28-.1-.28-.29v-4.71a.51.51 0 0 0-.147-.444.517.517 0 0 0-.443-.146h-.33c-.22 0-.33-.08-.33-.24v-1.18a.32.32 0 0 1 .23-.33 3.002 3.002 0 0 1 1.08-.18 1.881 1.881 0 0 1 1.78.92 3.378 3.378 0 0 1 2.54-.92 2.87 2.87 0 0 1 2.37 1.06 3.303 3.303 0 0 1 2.62-1.06 3.159 3.159 0 0 1 2.37.91 3.257 3.257 0 0 1 .89 2.41v1.93c0 .38.17.57.49.57a1.5 1.5 0 0 0 .46-.05c.207 0 .317.08.33.24l.09 1.25ZM7.41 16.385a13.69 13.69 0 0 1 26.57 0h-1.2a9.69 9.69 0 0 0-5.67 1.73c-.096.07-.196.133-.3.19h-.14a2.856 2.856 0 0 1-.3-.19 10.17 10.17 0 0 0-11.35 0c-.096.07-.196.133-.3.19h-.14a2.856 2.856 0 0 1-.3-.19 9.69 9.69 0 0 0-5.67-1.73h-1.2Zm23.21 6.27a3.37 3.37 0 0 1 2.16-.71h1.61v-3.21h-1.61a6.38 6.38 0 0 0-3.83 1.22 3.64 3.64 0 0 1-4.32 0 6.8 6.8 0 0 0-7.77 0 3.64 3.64 0 0 1-4.32 0 6.38 6.38 0 0 0-3.88-1.22H7v3.21h1.61a3.37 3.37 0 0 1 2.16.71 6.78 6.78 0 0 0 7.76 0 3.39 3.39 0 0 1 2.16-.71 3.35 3.35 0 0 1 2.16.71 6.8 6.8 0 0 0 7.77 0Zm0 5.74a3.37 3.37 0 0 1 2.16-.71h1.61v-3.21h-1.61a6.38 6.38 0 0 0-3.83 1.22 3.64 3.64 0 0 1-4.32 0 6.8 6.8 0 0 0-7.77 0 3.64 3.64 0 0 1-4.32 0 6.38 6.38 0 0 0-3.88-1.22H7v3.21h1.61a3.37 3.37 0 0 1 2.16.71 6.78 6.78 0 0 0 7.76 0 3.39 3.39 0 0 1 2.16-.71 3.35 3.35 0 0 1 2.16.71 6.8 6.8 0 0 0 7.77 0Z"/></svg>