<svg xmlns="http://www.w3.org/2000/svg" width="124" height="32" fill="#6d6e76"><path d="M36.87 10.07h3V22.2h-3V10.07Zm4.19 7.55c0-3 1.84-4.79 4.68-4.79s4.68 1.79 4.68 4.79-1.8 4.8-4.68 4.8-4.68-1.75-4.68-4.8Zm6.35 0c0-1.65-.65-2.62-1.67-2.62s-1.66 1-1.66 2.62.63 2.6 1.66 2.6c1.03 0 1.67-.92 1.67-2.59v-.01Zm4.14 5.17h2.88a1.55 1.55 0 0 0 1.62.9c1.14 0 1.74-.62 1.74-1.52v-1.68h-.06A2.84 2.84 0 0 1 55 22.13c-2.19 0-3.64-1.67-3.64-4.54s1.38-4.68 3.68-4.68a2.87 2.87 0 0 1 2.76 1.76V13h3v9.1c0 2.19-1.93 3.55-4.78 3.55-2.65 0-4.3-1.19-4.47-2.85v-.01Zm6.25-5.18c0-1.46-.67-2.38-1.73-2.38s-1.71.91-1.71 2.38c0 1.47.64 2.3 1.71 2.3 1.07 0 1.73-.81 1.73-2.29v-.01Zm4.13 0c0-3 1.84-4.79 4.68-4.79s4.69 1.79 4.69 4.79-1.8 4.8-4.69 4.8c-2.89 0-4.68-1.74-4.68-4.79v-.01Zm6.35 0c0-1.65-.65-2.62-1.67-2.62S65 16 65 17.63c0 1.63.63 2.6 1.65 2.6s1.63-.93 1.63-2.6v-.02Zm4.16-6.79A1.53 1.53 0 1 1 74 12.31a1.46 1.46 0 0 1-1.56-1.47v-.02Zm0 2.2h3v9.18h-3v-9.18Zm13.89 4.59c0 3-1.33 4.71-3.61 4.71a2.86 2.86 0 0 1-2.8-1.7h-.06v4.52h-3V13h3v1.64h.06a2.87 2.87 0 0 1 2.78-1.77c2.3.04 3.67 1.76 3.67 4.76l-.04-.02Zm-3 0c0-1.46-.67-2.39-1.72-2.39-1.05 0-1.72.94-1.73 2.39-.01 1.45.68 2.38 1.73 2.38 1.05 0 1.72-.91 1.72-2.36v-.02Zm8.15-4.8c2.49 0 4 1.18 4.07 3.07h-2.73c0-.65-.54-1.06-1.37-1.06-.83 0-1.2.32-1.2.79 0 .47.33.62 1 .76l1.92.39c1.83.39 2.61 1.13 2.61 2.52 0 1.9-1.73 3.12-4.28 3.12-2.55 0-4.22-1.22-4.35-3.09h2.89c.09.68.63 1.08 1.51 1.08s1.28-.29 1.28-.77c0-.48-.28-.58-1-.73l-1.73-.37c-1.79-.37-2.73-1.32-2.73-2.72.02-1.8 1.63-2.97 4.11-2.97v-.02Zm14.31 9.37h-2.89v-1.71h-.06a2.61 2.61 0 0 1-2.66 1.91 3.19 3.19 0 0 1-3.36-3.45V13h3v5.24c0 1.09.56 1.67 1.49 1.67a1.534 1.534 0 0 0 1.153-.52 1.538 1.538 0 0 0 .367-1.21V13h3l-.04 9.18Zm1.45-9.18h2.9v1.77h.06a2.66 2.66 0 0 1 2.61-1.94 2.39 2.39 0 0 1 2.55 2h.06a2.816 2.816 0 0 1 2.82-2 2.907 2.907 0 0 1 2.835 1.92c.138.384.195.793.165 1.2v6.25h-3v-5.45c0-1-.45-1.46-1.29-1.46a1.31 1.31 0 0 0-1.31 1.48v5.43h-2.85v-5.49c0-.92-.45-1.42-1.27-1.42a1.338 1.338 0 0 0-1.33 1.5v5.41h-3l.05-9.2Zm-78.76-2.38a13.248 13.248 0 0 0-2-3.22A13.53 13.53 0 1 0 7.8 26.72a13.09 13.09 0 0 0 3.2 1.83 13.39 13.39 0 0 0 5.07 1A13.56 13.56 0 0 0 29.6 16a13.39 13.39 0 0 0-1.12-5.38ZM16.06 5.19c1.562 0 3.104.341 4.52 1a4.39 4.39 0 0 1-1.08.31 5.73 5.73 0 0 0-4.85 4.85A3 3 0 0 1 11.94 14a5.73 5.73 0 0 0-4.85 4.85 2.91 2.91 0 0 1-.79 1.74 10.8 10.8 0 0 1 9.77-15.42l-.01.02ZM7.79 23c.12-.11.24-.21.36-.33a5.48 5.48 0 0 0 1.62-3.23 2.92 2.92 0 0 1 .87-1.82 2.83 2.83 0 0 1 1.81-.86 5.73 5.73 0 0 0 4.85-4.85 2.92 2.92 0 0 1 .87-1.91A2.87 2.87 0 0 1 20 9.17a5.48 5.48 0 0 0 3-1.43 10.51 10.51 0 0 1 2.36 2.78.862.862 0 0 1-.13.14 2.87 2.87 0 0 1-1.81.88 5.71 5.71 0 0 0-4.85 4.85 3 3 0 0 1-2.69 2.68A5.76 5.76 0 0 0 11 23.92a3.14 3.14 0 0 1-.49 1.37A10.89 10.89 0 0 1 7.79 23Zm8.27 3.86a10.841 10.841 0 0 1-3-.42c.334-.622.55-1.3.64-2a3 3 0 0 1 2.68-2.68 5.73 5.73 0 0 0 4.86-4.85 3 3 0 0 1 2.68-2.68 5.71 5.71 0 0 0 2.56-1 10.82 10.82 0 0 1-10.42 13.58v.05Z"/></svg>